<svg class="animated" id="freepik_stories-workout" xmlns="http://www.w3.org/2000/svg" viewBox="0 0 500 500" version="1.1" xmlns:xlink="http://www.w3.org/1999/xlink" xmlns:svgjs="http://svgjs.com/svgjs"><style>svg#freepik_stories-workout:not(.animated) .animable {opacity: 0;}svg#freepik_stories-workout.animated #freepik--background-complete--inject-127 {animation: 1s 1 forwards cubic-bezier(.36,-0.01,.5,1.38) fadeIn;animation-delay: 0s;}svg#freepik_stories-workout.animated #freepik--Plant--inject-127 {animation: 1s 1 forwards ease-out slideLeft;animation-delay: 0s;}svg#freepik_stories-workout.animated #freepik--Character--inject-127 {animation: 1.5s Infinite  linear wind;animation-delay: 0s;}svg#freepik_stories-workout.animated #freepik--Dumbell--inject-127 {animation: 1.5s Infinite  linear floating;animation-delay: 0s;}            @keyframes fadeIn {                0% {                    opacity: 0;                }                100% {                    opacity: 1;                }            }                    @keyframes slideLeft {                0% {                    opacity: 0;                    transform: translateX(-30px);                }                100% {                    opacity: 1;                    transform: translateX(0);                }            }                    @keyframes wind {                0% {                    transform: rotate( 0deg );                }                25% {                    transform: rotate( 1deg );                }                75% {                    transform: rotate( -1deg );                }            }                    @keyframes floating {                0% {                    opacity: 1;                    transform: translateY(0px);                }                50% {                    transform: translateY(-10px);                }                100% {                    opacity: 1;                    transform: translateY(0px);                }            }        </style><g id="freepik--background-complete--inject-127" class="animable" style="transform-origin: 250px 222.975px;"><rect x="410.2" y="379.46" width="26.48" height="11.19" style="fill: rgb(235, 235, 235); transform-origin: 423.44px 385.055px;" id="el4bv2w4kdlwi" class="animable"></rect><rect x="424.98" y="393.57" width="26.48" height="11.19" style="fill: rgb(235, 235, 235); transform-origin: 438.22px 399.165px;" id="elctriznwkp5d" class="animable"></rect><rect x="63.32" y="379.46" width="26.48" height="11.19" style="fill: rgb(235, 235, 235); transform-origin: 76.56px 385.055px;" id="el7j639hjlzaf" class="animable"></rect><rect x="48.54" y="393.57" width="26.48" height="11.19" style="fill: rgb(235, 235, 235); transform-origin: 61.78px 399.165px;" id="eldh4tkm6gx9" class="animable"></rect><rect x="78.09" y="393.57" width="26.48" height="11.19" style="fill: rgb(235, 235, 235); transform-origin: 91.33px 399.165px;" id="elpaavl1hmgn" class="animable"></rect><rect x="221.76" y="178.43" width="26.48" height="11.19" style="fill: rgb(235, 235, 235); transform-origin: 235px 184.025px;" id="el2lk9d1enk68" class="animable"></rect><rect x="408.67" y="149.87" width="26.48" height="11.19" style="fill: rgb(235, 235, 235); transform-origin: 421.91px 155.465px;" id="elf5xyz9hagcn" class="animable"></rect><rect x="408.67" y="41.19" width="26.48" height="11.19" style="fill: rgb(235, 235, 235); transform-origin: 421.91px 46.785px;" id="elo7ca8bl4okn" class="animable"></rect><rect x="423.44" y="55.3" width="26.48" height="11.19" style="fill: rgb(235, 235, 235); transform-origin: 436.68px 60.895px;" id="elddrrc5y5sne" class="animable"></rect><rect x="48.54" y="41.2" width="26.48" height="11.19" style="fill: rgb(235, 235, 235); transform-origin: 61.78px 46.795px;" id="el85ri5rummsy" class="animable"></rect><path d="M76.8,57.09V380.86H234.44V57.09ZM229.54,376.37H81.7V61.58H229.54Z" style="fill: rgb(199, 199, 199); transform-origin: 155.62px 218.975px;" id="elc6o3nm2ef5" class="animable"></path><rect x="81.7" y="61.58" width="147.84" height="314.79" style="fill: rgb(235, 235, 235); transform-origin: 155.62px 218.975px;" id="eldfix8151q3m" class="animable"></rect><g id="el1tg3seq36w3"><g style="opacity: 0.5; transform-origin: 155.62px 218.975px;" class="animable"><polygon points="229.54 61.58 229.54 89.26 81.7 224.73 81.7 195.7 228.06 61.58 229.54 61.58" style="fill: rgb(255, 255, 255); transform-origin: 155.62px 143.155px;" id="elxoisufh3c3l" class="animable"></polygon><polygon points="229.54 298.15 229.54 327.17 175.85 376.37 144.19 376.37 229.54 298.15" style="fill: rgb(255, 255, 255); transform-origin: 186.865px 337.26px;" id="elf8sl3l308c9" class="animable"></polygon><polygon points="229.54 149.12 229.54 151.96 81.7 287.44 81.7 284.6 229.54 149.12" style="fill: rgb(255, 255, 255); transform-origin: 155.62px 218.28px;" id="elb3fem5h1tq9" class="animable"></polygon><polygon points="229.54 260.91 229.54 263.75 106.66 376.37 103.56 376.37 229.54 260.91" style="fill: rgb(255, 255, 255); transform-origin: 166.55px 318.64px;" id="elxtkkithcbmo" class="animable"></polygon><polygon points="130.33 61.58 81.7 106.14 81.7 103.3 127.23 61.58 130.33 61.58" style="fill: rgb(255, 255, 255); transform-origin: 106.015px 83.86px;" id="elimvwarptdu" class="animable"></polygon><polygon points="215.31 61.58 81.7 184.02 81.7 173.86 204.23 61.58 215.31 61.58" style="fill: rgb(255, 255, 255); transform-origin: 148.505px 122.8px;" id="elq6qcs20vzo" class="animable"></polygon><polygon points="229.54 221.13 229.54 231.29 81.7 366.77 81.7 356.6 229.54 221.13" style="fill: rgb(255, 255, 255); transform-origin: 155.62px 293.95px;" id="elkl25d2gxcvg" class="animable"></polygon><polygon points="229.54 347.44 229.54 357.61 209.07 376.37 197.97 376.37 229.54 347.44" style="fill: rgb(255, 255, 255); transform-origin: 213.755px 361.905px;" id="elio3nrjcdlw" class="animable"></polygon></g></g><path d="M423.2,380.86V57.09H265.56V380.86ZM270.46,61.58H418.3V376.37H270.46Z" style="fill: rgb(199, 199, 199); transform-origin: 344.38px 218.975px;" id="elu9fs7prgyd" class="animable"></path><rect x="270.46" y="61.58" width="147.84" height="314.79" style="fill: rgb(235, 235, 235); transform-origin: 344.38px 218.975px;" id="elb8a9z6xgmf7" class="animable"></rect><g id="elzdrqzg4whnk"><g style="opacity: 0.5; transform-origin: 344.38px 218.975px;" class="animable"><polygon points="270.46 376.37 270.46 348.69 418.3 213.22 418.3 242.25 271.94 376.37 270.46 376.37" style="fill: rgb(255, 255, 255); transform-origin: 344.38px 294.795px;" id="elhu5wfe1fg3" class="animable"></polygon><polygon points="270.46 139.8 270.46 110.78 324.14 61.58 355.81 61.58 270.46 139.8" style="fill: rgb(255, 255, 255); transform-origin: 313.135px 100.69px;" id="elwbxbf2aoc4e" class="animable"></polygon><polygon points="270.46 288.83 270.46 285.99 418.3 150.51 418.3 153.35 270.46 288.83" style="fill: rgb(255, 255, 255); transform-origin: 344.38px 219.67px;" id="el8hfidyhy3fg" class="animable"></polygon><polygon points="270.46 177.04 270.46 174.2 393.34 61.58 396.44 61.58 270.46 177.04" style="fill: rgb(255, 255, 255); transform-origin: 333.45px 119.31px;" id="el0sppqst2g3oq" class="animable"></polygon><polygon points="369.67 376.37 418.3 331.81 418.3 334.65 372.77 376.37 369.67 376.37" style="fill: rgb(255, 255, 255); transform-origin: 393.985px 354.09px;" id="elpqhssm8cpfp" class="animable"></polygon><polygon points="284.69 376.37 418.3 253.93 418.3 264.09 295.77 376.37 284.69 376.37" style="fill: rgb(255, 255, 255); transform-origin: 351.495px 315.15px;" id="eld6sw0p0t95v" class="animable"></polygon><polygon points="270.46 216.82 270.46 206.66 418.3 71.18 418.3 81.35 270.46 216.82" style="fill: rgb(255, 255, 255); transform-origin: 344.38px 144px;" id="elpxyfusvrvy" class="animable"></polygon><polygon points="270.46 90.51 270.46 80.34 290.93 61.58 302.03 61.58 270.46 90.51" style="fill: rgb(255, 255, 255); transform-origin: 286.245px 76.045px;" id="elxeh63mzy0g" class="animable"></polygon></g></g></g><g id="freepik--Plant--inject-127" class="animable animator-active" style="transform-origin: 99.7352px 340.335px;"><path d="M90.07,353.9s-19.81-4.49-30.67-14.5-16.93-27.93-16.93-27.93a170.46,170.46,0,0,1,22.22,5.84c1.78,1.89,5.15,5.8,6.73,9.5a45.94,45.94,0,0,0,0-6.79,30.52,30.52,0,0,1,7.06,4.28C87.53,332.18,90.07,353.9,90.07,353.9Z" style="fill: rgb(255, 199, 39); transform-origin: 66.27px 332.685px;" id="elk5iiobxuibd" class="animable"></path><path d="M54.85,320.18c-2.71-1.87-5.46-3.67-8.15-5.56a.16.16,0,0,1,.17-.26c5.1,3.05,10.14,6.31,15,9.72,1.7,1.19,3.36,2.43,5,3.69l-.35-.58c-.59-1-1.22-2-1.84-2.95a41.91,41.91,0,0,0-4.21-5.61c-.06-.07,0-.16.1-.1,1.54,1.78,3.08,3.54,4.49,5.43.67.9,1.29,1.83,1.88,2.78.31.49.61,1,.89,1.49l.3.51c2.56,2,5.06,4.11,7.44,6.33,1.47,1.37,2.88,2.79,4.25,4.25-.76-2.39-1.43-4.82-2.32-7.18,0-.08.1-.11.13,0,.86,2.47,1.81,5,2.47,7.51q2.28,2.46,4.34,5.1c0-.1,0-.21-.07-.32-.22-.93-.46-1.86-.71-2.79-.48-1.79-1-3.57-1.61-5.33a31,31,0,0,0-5.32-10c-.06-.07,0-.16.09-.1A38.74,38.74,0,0,1,84.43,342c.21.84.41,1.69.61,2.54.1.45.22.91.29,1.37.6.81,1.19,1.63,1.75,2.46a86.61,86.61,0,0,1,8.39,16.44,193.25,193.25,0,0,1,6.35,19.8.11.11,0,0,1-.21.05c-3.87-11.59-7.83-23.35-14.46-33.72-1.4-2.19-2.92-4.29-4.53-6.33A37.16,37.16,0,0,1,73,342.67,42.2,42.2,0,0,1,63.33,338a61.73,61.73,0,0,1-4.95-3.74c-.07-.06,0-.17.08-.1a39.46,39.46,0,0,0,9.09,5.49,49.55,49.55,0,0,0,10,3.36c1.47.31,2.95.55,4.43.75a83.15,83.15,0,0,0-5.84-6.47c-.67-.67-1.36-1.31-2-1.95a46.22,46.22,0,0,0-7.32-4.2c-3.25-1.57-6.45-3.23-9.66-4.87-1.81-.92-3.61-1.86-5.44-2.75-.08,0,0-.16.07-.12,3.26,1.57,6.56,3,9.85,4.55,3.1,1.42,6.23,2.84,9.19,4.51l.38.22c-2.68-2.34-5.46-4.56-8.31-6.71Q58.91,323,54.85,320.18Z" style="fill: rgb(38, 50, 56); transform-origin: 74.2386px 349.538px;" id="elob8hx2bglt" class="animable"></path><path d="M56,330.4c1.61.7,3.25,1.33,4.85,2.08s3.19,1.66,4.75,2.58c.07,0,0,.14-.06.11-1.58-.76-3.18-1.47-4.75-2.26s-3.18-1.66-4.83-2.38C55.85,330.49,55.89,330.36,56,330.4Z" style="fill: rgb(38, 50, 56); transform-origin: 60.762px 332.783px;" id="ellx4un7hmyl" class="animable"></path><path d="M154.44,254.05a28.32,28.32,0,0,0-5.92,16.45c-.07,1.78.21,4.26.42,7.17-7.39,3.94-12.93,11.05-12.93,11.05,4.2-2.52,10-3.54,13.07-3.13a40.16,40.16,0,0,1-.76,5.92c-1.37-.08-4,.11-8.4,1.66a18.89,18.89,0,0,1,7.57,1.51c-3.53,11.24-14,22.78-43,27.68a60.82,60.82,0,0,1,5.14-40.79C118.29,264.48,154.44,254.05,154.44,254.05Z" style="fill: rgb(255, 199, 39); transform-origin: 128.736px 288.205px;" id="el6722vctz8hk" class="animable"></path><path d="M94.44,370.45q.75-7.21,1.87-14.36a287.88,287.88,0,0,1,5.85-28.38,112.09,112.09,0,0,1,4.19-12.93,20.12,20.12,0,0,1-.11-2.32c0-.93,0-1.86,0-2.79,0-1.86.1-3.71.26-5.56a66.6,66.6,0,0,1,1.78-10.87c.53-2.06,1.15-4.1,1.75-6.14a.07.07,0,1,1,.13,0A81.3,81.3,0,0,0,108,298a101.53,101.53,0,0,0-1,10.88c0,1-.06,2-.06,3,0,.42,0,.85,0,1.28A91.18,91.18,0,0,1,111.9,303a121.92,121.92,0,0,1,9.93-14.85,5.93,5.93,0,0,1,.23-1.62l.42-1.94c.3-1.33.63-2.64,1-3.95.72-2.63,1.68-5.17,2.5-7.76,0-.08.15-.05.13,0-.77,2.57-1.28,5.22-1.87,7.84-.29,1.29-.57,2.59-.85,3.88-.15.65-.28,1.29-.42,1.94a.77.77,0,0,0,0,.15c1.17-1.48,2.36-2.94,3.59-4.37,5.53-6.5,11.6-12.48,17.71-18.43.75-.73,1.52-1.44,2.28-2.16.07-.06.16,0,.1.09-5.84,6.09-11.59,12.25-17,18.7q-1.94,2.31-3.81,4.66c.65-.45,1.32-.88,2-1.31,1.69-1.11,3.4-2.18,5.16-3.17s3.53-1.95,5.34-2.84,3.84-1.67,5.64-2.72c.07,0,.14.09.06.12a43.33,43.33,0,0,0-5.29,2.93c-1.76,1.05-3.52,2.1-5.26,3.2s-3.41,2.15-5.11,3.25c-1.41.91-2.79,1.92-4.26,2.76A137.06,137.06,0,0,0,114.74,301a98.94,98.94,0,0,0-4.81,9.1c.35-.15.7-.29,1-.45l2.66-1.17c1.7-.76,3.42-1.5,5.13-2.24,3.25-1.42,6.55-2.72,9.74-4.27a43.9,43.9,0,0,0,5.2-2.89c.08-.05.14.07.07.12-5.94,4.1-12.61,7-19.19,9.89l-2.85,1.27c-.78.34-1.57.73-2.38,1a101.7,101.7,0,0,0-4.9,13.44,274.52,274.52,0,0,0-6.31,28.05c-1.66,9.47-2.78,19-3.65,28.57-.11,1.2-.22,2.39-.35,3.58a.38.38,0,0,1-.76,0C93.43,380.14,93.93,375.27,94.44,370.45Z" style="fill: rgb(38, 50, 56); transform-origin: 120.005px 323.543px;" id="ela4b43vy76lc" class="animable"></path><path d="M112.08,290.38c.53-2.94,1.31-5.83,2.11-8.71,0-.09.15-.05.13,0-.74,2.83-1.26,5.72-1.8,8.59s-1,5.88-1.43,8.83a0,0,0,1,1-.08,0A75.83,75.83,0,0,1,112.08,290.38Z" style="fill: rgb(38, 50, 56); transform-origin: 112.666px 290.353px;" id="el8pybs5fg3f3" class="animable"></path><path d="M124.57,298.38a51.92,51.92,0,0,1,6.3-3.55c1.06-.55,2.13-1.07,3.2-1.59s2.25-1,3.35-1.53c.07,0,.14.08.06.12-1.06.53-2.06,1.18-3.11,1.75s-2.14,1.18-3.22,1.76c-2.11,1.13-4.2,2.4-6.42,3.32A.16.16,0,0,1,124.57,298.38Z" style="fill: rgb(38, 50, 56); transform-origin: 131.002px 295.196px;" id="el3hi4j0a7yfe" class="animable"></path><g id="el3ddq2bzqa5q"><path d="M89.71,319.58S71.38,315.2,63,302.9c-8-11.75-10.64-31.77-10.84-33.53.33,1.61,4.11,19.11,16.59,27.26C78.27,302.88,87.5,308,89.71,319.58Z" style="fill: rgb(38, 50, 56); opacity: 0.1; transform-origin: 70.935px 294.475px;" class="animable"></path></g><path d="M72.79,287.9A23.38,23.38,0,0,1,79.55,299a0,0,0,1,1-.06,0A27.3,27.3,0,0,0,72.7,288C72.64,287.94,72.73,287.84,72.79,287.9Z" style="fill: rgb(38, 50, 56); transform-origin: 76.1151px 293.441px;" id="elz2mzfdb5xme" class="animable"></path><path d="M89.71,319.58S71.38,315.2,63,302.9c-8-11.75-10.64-31.77-10.84-33.53a.59.59,0,0,1,0-.13s8.79,12.5,18,15.69S92.36,299.15,89.71,319.58Z" style="fill: rgb(255, 199, 39); transform-origin: 71.108px 294.41px;" id="elu3nu2aseidc" class="animable"></path><path d="M55.34,276.14A75.71,75.71,0,0,0,61,285.83a38.78,38.78,0,0,0,7.54,7.76c2.49,2,5.13,3.77,7.65,5.71l-.06-.09c-.47-.7-1-1.38-1.5-2-1-1.34-2.2-2.61-3.35-3.86-2.28-2.47-4.6-4.9-6.65-7.57A28.59,28.59,0,0,1,61.7,281c0-.08.09-.12.13,0,3,6.19,8.91,10.16,13.15,15.39a27.6,27.6,0,0,1,1.7,2.32,10.25,10.25,0,0,1,1,1.86A38.25,38.25,0,0,1,84,306.85a26.13,26.13,0,0,0-.74-3.56,17.75,17.75,0,0,0-1.94-4.65c0-.07.07-.15.11-.07a21.93,21.93,0,0,1,2.14,4.61,16.84,16.84,0,0,1,.67,4h0A37.14,37.14,0,0,1,86.71,311c-.07-.4-.15-.79-.23-1.18-.36-1.83-.76-3.65-1.24-5.45a32.63,32.63,0,0,0-4.41-10.33c0-.07.07-.15.12-.07a39.11,39.11,0,0,1,4.88,10.1c.59,1.8,1.06,3.63,1.47,5.48.2.9.38,1.8.55,2.71.09.47.19,1,.27,1.43a66.5,66.5,0,0,1,4.23,12.43,183.72,183.72,0,0,1,3.91,23.19,190.85,190.85,0,0,1,1.26,24.61c0,1-.08,2.06-.13,3.09,0,.27-.41.31-.43,0-.18-4.07-.28-8.14-.52-12.21s-.6-8.13-1-12.18A218.16,218.16,0,0,0,91.59,329c-1.49-6.71-3.42-13.45-7.08-19.33a36.12,36.12,0,0,0-6.62-7.86c-2.57-2.31-5.38-4.33-8.09-6.47a44.39,44.39,0,0,1-7.42-7.14,57.41,57.41,0,0,1-5.83-9.46l-1.32-2.49C55.19,276.14,55.31,276.06,55.34,276.14Z" style="fill: rgb(38, 50, 56); transform-origin: 76.3796px 326.668px;" id="el6l1ioxo8rfh" class="animable"></path><path d="M58.51,278.83A63,63,0,0,0,62.59,286s0,.11-.08.06a50,50,0,0,1-4.13-7.16C58.34,278.79,58.47,278.75,58.51,278.83Z" style="fill: rgb(38, 50, 56); transform-origin: 60.4812px 282.43px;" id="elw1guh7gkgw" class="animable"></path><path d="M157,311.47s.29,26.06-15.29,33.58-23.93,1.25-34.52,3.77h0c.41-.62,8-11.48,20-14.47C139.55,331.26,153.25,322.33,157,311.47Z" style="fill: rgb(255, 199, 39); transform-origin: 132.095px 330.186px;" id="elt2i8b74t97d" class="animable"></path><g id="elniuxl3n6z7r"><path d="M157,311.47s.29,26.06-15.29,33.58-23.93,1.25-34.52,3.77h0a59.19,59.19,0,0,1,17.71-5.23C134.74,342.4,153.51,336,157,311.47Z" style="opacity: 0.1; transform-origin: 132.095px 330.186px;" class="animable"></path></g><path d="M106.16,349.29a26.06,26.06,0,0,1,6.2-4.2c.33-.16.68-.29,1-.43a7.45,7.45,0,0,1,.52-.6,19.21,19.21,0,0,1,1.47-1.39,22.49,22.49,0,0,1,3.13-2.27c2.58-1.51,5.41-2.57,8-4a.07.07,0,1,1,.07.11c-1.31.68-2.57,1.43-3.84,2.17s-2.5,1.41-3.7,2.18a26.89,26.89,0,0,0-3.08,2.31c-.28.24-.54.5-.8.77a41.59,41.59,0,0,1,5.26-1.4c2.85-.58,5.74-1,8.58-1.59a39.52,39.52,0,0,0,4.14-1.12c1.29-1,2.58-2.07,3.81-3.2a31.6,31.6,0,0,0,4-4.47c.05-.07.17,0,.12.07a47,47,0,0,1-6.39,7.05c.67-.25,1.34-.53,2-.82A32.16,32.16,0,0,0,150,327.43c.05-.07.16,0,.11.07a36.28,36.28,0,0,1-10.74,10.31A31.63,31.63,0,0,1,132.6,341a62.59,62.59,0,0,1-8.43,2,59.41,59.41,0,0,0-8.26,2,25.1,25.1,0,0,0-6.93,3.64,32.43,32.43,0,0,0-9.33,11.58c-3,5.92-4.36,12.53-5.14,19.05,0,.28-.47.28-.45,0C94.79,368.29,97.72,356.89,106.16,349.29Z" style="fill: rgb(38, 50, 56); transform-origin: 122.091px 353.44px;" id="el389quso9lzg" class="animable"></path><path d="M124.24,340.79a9,9,0,0,1,3.21-2.9,11.85,11.85,0,0,0,3.81-3.15c.05-.07.16,0,.11.07a13,13,0,0,1-3.36,3,11.82,11.82,0,0,0-3.67,3C124.3,340.91,124.2,340.85,124.24,340.79Z" style="fill: rgb(38, 50, 56); transform-origin: 127.807px 337.787px;" id="ell2uv9sd8jw8" class="animable"></path><polygon points="115.98 368.52 115.27 382.85 113.1 426.62 80.41 426.62 78.24 382.85 77.53 368.52 115.98 368.52" style="fill: rgb(55, 71, 79); transform-origin: 96.755px 397.57px;" id="el6uy4iemrihd" class="animable"></polygon><polygon points="115.98 368.52 115.27 382.85 78.24 382.85 77.53 368.52 115.98 368.52" style="fill: rgb(38, 50, 56); transform-origin: 96.755px 375.685px;" id="elk4u257l4xe" class="animable"></polygon><rect x="75.24" y="362.54" width="43.03" height="13.67" style="fill: rgb(55, 71, 79); transform-origin: 96.755px 369.375px;" id="eliik2kmt94z" class="animable"></rect></g><g id="freepik--Floor--inject-127" class="animable" style="transform-origin: 250px 426.62px;"><polygon points="39.97 426.62 92.48 426.38 144.99 426.29 250 426.12 355.01 426.29 407.52 426.38 460.03 426.62 407.52 426.87 355.01 426.95 250 427.12 144.99 426.95 92.48 426.86 39.97 426.62" style="fill: rgb(38, 50, 56); transform-origin: 250px 426.62px;" id="elt62dnx6wlbq" class="animable"></polygon></g><g id="freepik--Character--inject-127" class="animable" style="transform-origin: 255.894px 270.576px;"><polygon points="307.89 299.13 56.47 323.63 56.47 306.52 307.89 282.03 307.89 299.13" style="fill: rgb(55, 71, 79); transform-origin: 182.18px 302.83px;" id="elizc4lzrjhoi" class="animable"></polygon><polygon points="307.89 307.44 67.17 330.92 67.17 322.61 307.89 299.13 307.89 307.44" style="fill: rgb(166, 166, 166); transform-origin: 187.53px 315.025px;" id="el06e8el4lryoj" class="animable"></polygon><rect x="307.89" y="282.03" width="45.09" height="17.1" style="fill: rgb(69, 90, 100); transform-origin: 330.435px 290.58px;" id="eliziubqof6ze" class="animable"></rect><rect x="307.89" y="299.13" width="41.94" height="8.31" style="fill: rgb(199, 199, 199); transform-origin: 328.86px 303.285px;" id="elrd10hwn79t9" class="animable"></rect><path d="M448.38,349.32c0,9.77-6.13,17.71-13.74,17.8H355v-35.6h79.68C442.25,331.61,448.38,339.55,448.38,349.32Z" style="fill: rgb(55, 71, 79); transform-origin: 401.69px 349.32px;" id="el2czowftdrav" class="animable"></path><ellipse cx="354.95" cy="349.32" rx="13.88" ry="17.8" style="fill: rgb(38, 50, 56); transform-origin: 354.95px 349.32px;" id="elk4f9dthbhlf" class="animable"></ellipse><ellipse cx="354.95" cy="349.32" rx="7.27" ry="9.32" style="fill: rgb(199, 199, 199); transform-origin: 354.95px 349.32px;" id="el4x22raec8uk" class="animable"></ellipse><polygon points="300.04 419.08 282.62 419.08 247.67 313.33 265.09 311.63 300.04 419.08" style="fill: rgb(166, 166, 166); transform-origin: 273.855px 365.355px;" id="elcm91drtxjy" class="animable"></polygon><polygon points="306.01 419.08 300.04 419.08 265.09 311.63 270.85 311.09 306.01 419.08" style="fill: rgb(199, 199, 199); transform-origin: 285.55px 365.085px;" id="el50b2fh6acq" class="animable"></polygon><polygon points="102.5 419.08 85.08 419.08 85.08 329.18 102.5 327.48 102.5 419.08" style="fill: rgb(166, 166, 166); transform-origin: 93.79px 373.28px;" id="elyw152ubc7v8" class="animable"></polygon><polygon points="108.88 326.86 102.5 327.48 102.5 419.08 108.88 419.08 108.88 326.86" style="fill: rgb(199, 199, 199); transform-origin: 105.69px 372.97px;" id="elnx4uu0zz7t" class="animable"></polygon><rect x="75.9" y="419.08" width="268.1" height="7.54" style="fill: rgb(166, 166, 166); transform-origin: 209.95px 422.85px;" id="elrn1m7b450u" class="animable"></rect><rect x="344" y="419.08" width="32.35" height="7.54" style="fill: rgb(199, 199, 199); transform-origin: 360.175px 422.85px;" id="eles1hpey3cn5" class="animable"></rect><path d="M453.54,348.46c-2.52.88-78.55-.71-79.61-2.61-1.24-2.22-2.31-9.13-1.82-19.77,0-.4-31.81-32.62-31.81-32.62l41.89-16.18L421.13,323S448,335.92,450.9,338.12,456.06,347.58,453.54,348.46Z" style="fill: rgb(211, 118, 106); transform-origin: 397.465px 312.995px;" id="el4tnor44z8nu" class="animable"></path><path d="M453.54,348.47c-2.52.87-78.55-.72-79.61-2.62-1.23-2.22-2.31-9.13-1.82-19.77,0-.16-7.5-7.88-7.5-7.88L414.4,315l6.73,8S448,335.92,450.9,338.13,456.06,347.58,453.54,348.47Z" style="fill: rgb(235, 235, 235); transform-origin: 409.62px 331.857px;" id="el7oqglyf1irj" class="animable"></path><path d="M454.17,348.71c-2.56.82-77.6-.5-80.37-2.31-1.05-.67-3.41-7.07-1.69-20.32l49-3.08s27.83,12.91,30.65,15.21S456.74,347.89,454.17,348.71Z" style="fill: rgb(255, 199, 39); transform-origin: 413.409px 335.979px;" id="elhsjkl0tpl7" class="animable"></path><path d="M453.17,345.77c-12.26-.47-61.74-1.2-73.89-.74-.1,0-.1.08,0,.08,12.14.73,61.62,1.07,73.88.87C453.42,346,453.42,345.78,453.17,345.77Z" style="fill: rgb(38, 50, 56); transform-origin: 416.281px 345.46px;" id="el30wjnt3e34a" class="animable"></path><path d="M447.11,335.52a9.85,9.85,0,0,0-7.38,2.89,9.58,9.58,0,0,0-2.83,6.51c0,.07.14.08.15,0a11.39,11.39,0,0,1,10.06-9.25C447.2,335.67,447.21,335.52,447.11,335.52Z" style="fill: rgb(38, 50, 56); transform-origin: 442.041px 340.244px;" id="elqqa2k3al60j" class="animable"></path><path d="M425.86,324.29c-4.9-.14-10.61,1.52-13.72,5.49-.12.15.1.32.25.25a68.24,68.24,0,0,1,13.55-5.14A.31.31,0,0,0,425.86,324.29Z" style="fill: rgb(38, 50, 56); transform-origin: 419.124px 327.164px;" id="eleupbjjaitu6" class="animable"></path><path d="M429.63,325.82c-4.9-.14-10.62,1.52-13.72,5.49-.12.15.1.32.25.25a67.77,67.77,0,0,1,13.55-5.14A.31.31,0,0,0,429.63,325.82Z" style="fill: rgb(38, 50, 56); transform-origin: 422.894px 328.694px;" id="elnr522z4gxaa" class="animable"></path><path d="M433.4,327.35c-4.91-.14-10.62,1.51-13.72,5.49-.12.15.1.32.24.25A67.49,67.49,0,0,1,433.48,328,.31.31,0,0,0,433.4,327.35Z" style="fill: rgb(38, 50, 56); transform-origin: 426.706px 330.224px;" id="elue6c0a5046" class="animable"></path><path d="M437.17,328.88c-4.91-.14-10.62,1.51-13.73,5.49-.12.15.1.32.25.24a68.21,68.21,0,0,1,13.55-5.13A.3.3,0,0,0,437.17,328.88Z" style="fill: rgb(38, 50, 56); transform-origin: 430.455px 331.751px;" id="elfsktb27wbno" class="animable"></path><path d="M382.57,333.43c-5.51-.06-5.61,8.5-.1,8.56S388.08,333.49,382.57,333.43Z" style="fill: rgb(38, 50, 56); transform-origin: 382.52px 337.71px;" id="elsf3zdxa4fjs" class="animable"></path><path d="M431.35,311.27c-2.46-2.1-5.61-.13-7.18,2a25.91,25.91,0,0,0-4.63,12.49.13.13,0,0,0,.15.14.61.61,0,0,0,.88.41c3.53-2.37,7.59-4.46,10.29-7.85C432.43,316.48,433.67,313.25,431.35,311.27Zm-6.17,10.34c-1.7,1.21-3.46,2.33-5.12,3.6a75.14,75.14,0,0,1,2.87-7.24,27.7,27.7,0,0,1,1.83-3.28c1.09-1.61,6-5.64,6.38-.3C431.37,317.34,427.22,320.18,425.18,321.61Z" style="fill: rgb(38, 50, 56); transform-origin: 426.086px 318.377px;" id="el0o0xo2iiuqim" class="animable"></path><path d="M407.33,327.4c4.26.71,8.68-.44,12.89-1a.6.6,0,0,0,.38-.89.14.14,0,0,0,0-.21,25.77,25.77,0,0,0-11.79-6.2c-2.58-.53-6.24.11-6.67,3.31C401.76,325.4,404.84,327,407.33,327.4Zm-2.93-2.83c-3.26-4.26,3.06-4.51,4.94-4a28.29,28.29,0,0,1,3.57,1.21c2.42,1,4.66,2.27,7,3.47-2.08.17-4.13.51-6.21.75C411.18,326.25,406.2,326.91,404.4,324.57Z" style="fill: rgb(38, 50, 56); transform-origin: 411.396px 323.279px;" id="elgmanhqswkr5" class="animable"></path><g id="elm50ng9a4hyh"><path d="M454.17,348.71c-2.56.82-77.6-.5-80.37-2.31-1.05-.67-3.41-7.07-1.69-20.32l46.82-2.94,36.24,21.7C455.51,346.74,455.29,348.35,454.17,348.71Z" style="opacity: 0.1; transform-origin: 413.409px 336.049px;" class="animable"></path></g><path d="M403.89,305.24l-42.11,9.94s-34.71-34.5-43.81-45.82c-.29-.37-61.74,16.79-94,10.38-24.72-4.91-36.9-19.85-37.32-44.91l44.75-1.61c38.15-2.95,84.06-13.59,104.72-2.27C358.56,243.25,403.89,305.24,403.89,305.24Z" style="fill: rgb(211, 118, 106); transform-origin: 295.27px 270.516px;" id="elh5p5tkqpgm" class="animable"></path><path d="M269,227.68s-4.32,49.21-4.44,53.82c0,0-44.81,3.95-65.41-10.45-12.33-8.63-15.41-30.18-10-43.75L233,225.86l3.78,6.12Z" style="fill: rgb(55, 71, 79); transform-origin: 227.794px 253.928px;" id="el334u1cuo6zj" class="animable"></path><path d="M260.21,231.93c-1,8.35-.84,5.94-1.77,14.3-.46,4.09-2.79,24.65-2.58,28.54a.08.08,0,0,0,.16,0c1-3.76,2.88-24.36,3.26-28.46.78-8.38.47-6,1.16-14.36C260.45,231.8,260.22,231.78,260.21,231.93Z" style="fill: rgb(38, 50, 56); transform-origin: 258.144px 253.338px;" id="elt5n37s2jbh" class="animable"></path><path d="M187.33,227.36s-11.19,26.85-1.69,44c6.85,12.38,15.31,16.72,27.52,19.7,33.75,8.24,71.31-16.36,82.75-14.17,5.87,1.13,50.82,39.77,50.82,39.77L391.43,305c-13.12-12.77-58.12-67.91-80.26-74-18.12-5-67.56,7.05-68.45,6.2-1.46-1.39-9.77-11.38-9.77-11.38Z" style="fill: rgb(211, 118, 106); transform-origin: 286.623px 271.24px;" id="elnpzhs8vvfsr" class="animable"></path><path d="M272.26,229.55s-2.59,52.5-2.71,57.12c0,0-51,18.77-75.94-3-15.82-13.81-13.72-35.14-6.28-56.34l45.62-1.5,8,7.8Z" style="fill: rgb(69, 90, 100); transform-origin: 226.968px 260.01px;" id="el34vjolk5v4r" class="animable"></path><path d="M263.65,237.85c-.82,5.8-1.2,11.67-1.68,17.49s-.91,11.6-1.26,17.4c-.2,3.3-.39,6.59-.48,9.88a.07.07,0,0,0,.13,0c.74-5.82,1.21-11.66,1.69-17.5s.91-11.6,1.29-17.4c.21-3.29.44-6.59.48-9.88C263.82,237.74,263.67,237.74,263.65,237.85Z" style="fill: rgb(38, 50, 56); transform-origin: 262.025px 260.215px;" id="elkohegv23h1q" class="animable"></path><path d="M240.19,237c-.69-1.12-1.46-2.2-2.19-3.29-1.72-2.59-3.45-5.2-5.27-7.72-.18-.23-.6,0-.44.29,1.19,2,2.48,3.93,3.74,5.89q1,1.5,1.95,3a17.16,17.16,0,0,1,1.8,2.91c.43,1.08-.38,1.87-1.45,1.86a3.64,3.64,0,0,1-2.43-1.22,33.64,33.64,0,0,1-3.79-5.09c-.73-1-1.46-2.08-2.21-3.1s-1.65-2.14-2.44-3.23a.08.08,0,0,0-.13.08c.67,1.17,1.27,2.38,1.94,3.55s1.34,2.34,2,3.49,1.34,2.17,2.05,3.23a10,10,0,0,0,2.18,2.44c1.41,1.06,4,1.55,5-.31A2.78,2.78,0,0,0,240.19,237Z" style="fill: rgb(38, 50, 56); transform-origin: 234.032px 233.464px;" id="elz4kejtfgiu" class="animable"></path><path d="M253.77,265.49,240.43,293.4c-2.67.32-5.42.56-8.21.7l13.11-27.43Z" style="fill: rgb(255, 199, 39); transform-origin: 242.995px 279.795px;" id="elftmso3s3h2g" class="animable"></path><path d="M238,271.13l-11,23.06c-2.55,0-5.12-.15-7.66-.42l10.25-21.45Z" style="fill: rgb(255, 199, 39); transform-origin: 228.67px 282.66px;" id="elfxp2dr1ybdj" class="animable"></path><path d="M445.51,348.71c-2.48,1-78.49,3.25-79.65,1.4-1.34-2.15-2.76-9-2.8-19.66,0-.39-31.77-26.8-31.77-26.8l35.12-23,45.44,44.25s27.53,11.54,30.5,13.6S448,347.71,445.51,348.71Z" style="fill: rgb(211, 118, 106); transform-origin: 388.891px 315.734px;" id="el12p667wqjnc" class="animable"></path><path d="M445.5,348.71c-2.47,1-78.48,3.25-79.63,1.4-1.35-2.15-2.77-9-2.82-19.66,0-.13-7.07-6.08-7.07-6.08l48.22-6.91,7.65,7.46s27.53,11.54,30.5,13.6S448,347.71,445.5,348.71Z" style="fill: rgb(235, 235, 235); transform-origin: 401.235px 334.139px;" id="elnxdgv8by9yn" class="animable"></path><path d="M446.15,348.93c-2.52.95-77.53,3.4-80.38,1.74-1.09-.62-3.77-6.89-2.71-20.22l48.79-5.53s28.45,11.49,31.38,13.64S448.67,348,446.15,348.93Z" style="fill: rgb(255, 199, 39); transform-origin: 405.001px 338.076px;" id="elyg90s25ckfa" class="animable"></path><path d="M445,346c-12.27.15-61.72,1.91-73.83,3-.1,0-.1.07,0,.07,12.16.12,61.6-2,73.84-2.86C445.26,346.23,445.26,346,445,346Z" style="fill: rgb(38, 50, 56); transform-origin: 408.146px 347.537px;" id="elobt1dp8nfw" class="animable"></path><path d="M438.43,336.11a9.81,9.81,0,0,0-7.22,3.26,9.54,9.54,0,0,0-2.5,6.64c0,.07.14.07.15,0a11.37,11.37,0,0,1,9.58-9.74A.08.08,0,0,0,438.43,336.11Z" style="fill: rgb(38, 50, 56); transform-origin: 433.611px 341.086px;" id="elgfxlhb12pi" class="animable"></path><path d="M416.65,326c-4.91.11-10.53,2.05-13.43,6.17-.11.16.11.32.26.24a68,68,0,0,1,13.28-5.81A.31.31,0,0,0,416.65,326Z" style="fill: rgb(38, 50, 56); transform-origin: 410.075px 329.216px;" id="el96ck77fi55l" class="animable"></path><path d="M420.49,327.3c-4.91.11-10.53,2.05-13.43,6.17-.11.16.12.32.26.24a67.54,67.54,0,0,1,13.27-5.81A.31.31,0,0,0,420.49,327.3Z" style="fill: rgb(38, 50, 56); transform-origin: 413.911px 330.516px;" id="elc5iae90lwkh" class="animable"></path><path d="M424.33,328.64c-4.91.11-10.53,2.05-13.43,6.17-.11.16.12.32.26.24a67.37,67.37,0,0,1,13.28-5.81A.31.31,0,0,0,424.33,328.64Z" style="fill: rgb(38, 50, 56); transform-origin: 417.756px 331.856px;" id="elmve2ik7xg8s" class="animable"></path><path d="M428.17,330c-4.91.11-10.53,2-13.43,6.18-.11.16.12.31.26.23a68.56,68.56,0,0,1,13.28-5.81A.31.31,0,0,0,428.17,330Z" style="fill: rgb(38, 50, 56); transform-origin: 421.596px 333.216px;" id="el0z3gafmp20z" class="animable"></path><path d="M373.87,337.27c-5.51.22-5.18,8.77.33,8.55S379.38,337.06,373.87,337.27Z" style="fill: rgb(38, 50, 56); transform-origin: 374.035px 341.545px;" id="elifs2waa9i2" class="animable"></path><path d="M421.47,312.68c-2.56-2-5.61.16-7.07,2.35a25.78,25.78,0,0,0-4,12.71.13.13,0,0,0,.16.13.6.6,0,0,0,.89.37c3.41-2.55,7.36-4.85,9.88-8.36C422.81,317.83,423.89,314.54,421.47,312.68Zm-5.64,10.64c-1.64,1.3-3.34,2.5-4.93,3.85a77,77,0,0,1,2.5-7.37,26.39,26.39,0,0,1,1.67-3.37c1-1.66,5.67-5.94,6.35-.62C421.8,318.74,417.79,321.78,415.83,323.32Z" style="fill: rgb(38, 50, 56); transform-origin: 416.648px 320.106px;" id="elcyyjxsfeur" class="animable"></path><path d="M398.29,330c4.29.5,8.65-.88,12.83-1.68a.6.6,0,0,0,.33-.91.13.13,0,0,0,0-.21,25.81,25.81,0,0,0-12.09-5.59c-2.6-.41-6.22.42-6.49,3.64C392.63,328.29,395.78,329.71,398.29,330Zm-3.06-2.68c-3.48-4.09,2.83-4.66,4.73-4.28a28.68,28.68,0,0,1,3.62,1,76.54,76.54,0,0,1,7.13,3.12c-2.07.26-4.11.71-6.17,1.06C402.09,328.66,397.14,329.57,395.23,327.32Z" style="fill: rgb(38, 50, 56); transform-origin: 402.204px 325.81px;" id="eleiy3jtvk0uq" class="animable"></path><path d="M272.26,232.32a217.43,217.43,0,0,1,22.06-2.24,79,79,0,0,1,11.09.26,38.29,38.29,0,0,1,10.79,2.58,34.21,34.21,0,0,1,4.95,2.58c1.57,1,3.06,2.11,4.52,3.25,2.92,2.27,5.75,4.65,8.54,7.08,5.58,4.86,11,9.89,16.32,15q15.95,15.42,31.22,31.5,7.67,8,15.23,16.11l7.54,8.13,3.76,4.07,1.88,2,.94,1,.48.5.24.25.11.11.06.06,0,0c-.14.12.34-.26-.46.19l.42-.22c9.31,4,18.56,8.09,27.84,12.14-9.36-3.85-18.74-7.66-28.08-11.57l.42-.22c-.83.45-.37,0-.53.15l0,0-.07-.06-.13-.13-.25-.25-.48-.5-1-1-1.91-2-3.8-4-7.62-8.05Q388.76,301,381.07,293c-10.27-10.62-20.55-21.23-31.15-31.52-5.31-5.13-10.64-10.24-16.15-15.16-2.76-2.45-5.55-4.86-8.43-7.16a39.92,39.92,0,0,0-9.31-5.84,37.82,37.82,0,0,0-10.66-2.66,78.35,78.35,0,0,0-11.05-.37A217.82,217.82,0,0,0,272.26,232.32Z" style="fill: rgb(38, 50, 56); transform-origin: 356.025px 283.332px;" id="eld0j6cjzrwv8" class="animable"></path><path d="M130,148.32c1.72-2.85,9.43-11.38,16.5-16.62,3.43-2.54,14-8.79,16.2-6.31s-.79,4.59-.79,4.59,4.88-2,6.82.72-2.75,5.82-2.75,5.82,5.16-1.66,6.9,1.17-3.49,5.18-3.49,5.18,4.65-1.74,5.1,1.2c.55,3.52-8.38,5.76-12,8.76-.83.68-15.83,15-15.83,15Z" style="fill: rgb(211, 118, 106); transform-origin: 152.257px 146.325px;" id="el6nrga7velph" class="animable"></path><path d="M169.36,143c-6.56,1.66-9.15,3.52-13.74,8.35-.09.09-.25,0-.16-.12,4.06-5.14,7-7.94,13.84-8.55C169.64,142.6,169.68,142.88,169.36,143Z" style="fill: rgb(38, 50, 56); transform-origin: 162.506px 147.026px;" id="el3ukofu1c5a6" class="animable"></path><path d="M166.24,136.37c-6.66,2.32-9.49,4.31-14.67,9-.07.07-.19,0-.13-.12,4.7-5,7.67-7.77,14.63-9.21C166.39,136,166.55,136.26,166.24,136.37Z" style="fill: rgb(38, 50, 56); transform-origin: 158.915px 140.717px;" id="elth96n9f3d1" class="animable"></path><path d="M161.39,130.2c-6.29,2.7-9.48,4.76-13.93,10a.13.13,0,0,1-.2-.15c4-5.76,8-8.35,14-10C161.7,129.9,161.79,130,161.39,130.2Z" style="fill: rgb(38, 50, 56); transform-origin: 154.448px 135.102px;" id="eloodxuyrvegg" class="animable"></path><path d="M144.51,172.16s8.06-2.67,11.34-4.62,12.82-13.73,10.39-15.93c-3.13-2.85-10,2.86-13,6.1,0,0-7.24-6.6-13-3.56S144.51,172.16,144.51,172.16Z" style="fill: rgb(211, 118, 106); transform-origin: 152.544px 161.498px;" id="eldc069f6zvck" class="animable"></path><path d="M165.12,151.11c-4.72-.54-8.37,4-11.51,6.88a.38.38,0,0,1-.63-.1c-3.22-2.56-8.51-5.24-12.67-4a.1.1,0,0,1-.07-.18c4.28-1.94,9.69.26,13,3.3,3.17-3,7-7.4,11.86-5.95A0,0,0,0,1,165.12,151.11Z" style="fill: rgb(38, 50, 56); transform-origin: 152.66px 154.445px;" id="elvc93mwkiv1q" class="animable"></path><path d="M214.55,116.85c-3.2-.95-15.26-3-24-2.09-4.24.44-16.3,3-16.22,6.26s3.68,2.85,3.68,2.85-4.94,1.84-4.55,5.14,5.95,2.44,5.95,2.44-4.93,2.26-4.31,5.52,6.07,1.47,6.07,1.47-4.61,1.85-3,4.32c2,3,10.07-1.4,14.79-1.64,1.07-.06,21.8.42,21.8.42Z" style="fill: rgb(211, 118, 106); transform-origin: 194.099px 129.168px;" id="elf7xqipn8p0b" class="animable"></path><path d="M181.24,138.47c6-3.2,9.13-3.57,15.78-3.1.13,0,.17-.18,0-.2-6.47-1-10.51-1.16-16,3C180.8,138.39,181,138.62,181.24,138.47Z" style="fill: rgb(38, 50, 56); transform-origin: 189.029px 136.548px;" id="elwwtoym5t8i" class="animable"></path><path d="M179.11,131.5c6.48-2.78,9.91-3.21,16.91-3.23.1,0,.11-.17,0-.17-6.87-.56-10.9-.58-17,3.05C178.74,131.32,178.81,131.63,179.11,131.5Z" style="fill: rgb(38, 50, 56); transform-origin: 187.471px 129.678px;" id="elvgabd5krjf" class="animable"></path><path d="M178.53,123.67c6.48-2.24,10.21-2.87,17-2a.13.13,0,0,0,.05-.25c-6.85-1.54-11.52-.79-17.11,2.07C178.1,123.66,178.12,123.81,178.53,123.67Z" style="fill: rgb(38, 50, 56); transform-origin: 186.933px 122.181px;" id="el60zesnan9le" class="animable"></path><path d="M219.28,143.3s-7.75,3.45-11.49,4.22-18.72-1.5-18.41-4.76c.39-4.21,9.3-4.61,13.69-4.23,0,0,.9-9.75,7.23-11.42S219.28,143.3,219.28,143.3Z" style="fill: rgb(211, 118, 106); transform-origin: 204.328px 137.335px;" id="elrdehmu79hms" class="animable"></path><path d="M189.87,141.64c3.13-3.59,8.86-2.72,13.14-2.67a.4.4,0,0,0,.4-.51c.65-4.06,2.75-9.6,6.66-11.49a.1.1,0,0,0-.07-.18c-4.47,1.45-7,6.72-7.4,11.22-4.4-.12-10.18-.73-12.77,3.6C189.82,141.63,189.85,141.66,189.87,141.64Z" style="fill: rgb(38, 50, 56); transform-origin: 199.969px 134.218px;" id="elvma59k98fdd" class="animable"></path><path d="M199.46,181.12c22.63-7.6,55.39-34.41,50.8-43.94-4.45-9.25-19.24-17.62-37.23-20.77-2.62-.46-1.38,4.75-1.4,14.11,0,4.43-6.14,17.15-2.45,16.65,2.09-.28,7.3.79,9,1.21,1.41.34-17.9,16.31-25.65,22C180.16,179.34,193.4,183.16,199.46,181.12Z" style="fill: rgb(211, 118, 106); transform-origin: 219.061px 149.019px;" id="elywv9yyt79dn" class="animable"></path><path d="M214.28,174.32a88,88,0,0,1-14.82,6.8c-5.29,1.77-16-.9-10.47-7.58Z" style="fill: rgb(38, 50, 56); transform-origin: 200.863px 177.596px;" id="elgoxvp5lxdl" class="animable"></path><path d="M181.56,269.44c.22.1,53.13-40.59,53.44-41.5.42-1.28-24.11-44.89-40.52-54.36-4.11-2.37-17.82.17-20.82,9.92C163.76,215.82,180.77,269.06,181.56,269.44Z" style="fill: rgb(255, 199, 39); transform-origin: 202.789px 221.096px;" id="eliovtzcjq77p" class="animable"></path><path d="M226.13,211.75c-.39.67-.81,1.33-1.25,2a22.58,22.58,0,0,1-4,4.46,24.13,24.13,0,0,1-5.11,3.18,19.21,19.21,0,0,1-5.78,1.69,22.89,22.89,0,0,1-6-.06c-.56-.08-1.12-.17-1.67-.28l-.34-.07a63.24,63.24,0,0,1-9.51-3c-1.87-.7-3.73-1.42-5.63-2a34,34,0,0,0-3.72-1l-.35-.07c-.58-.11-1.16-.19-1.74-.25a12.31,12.31,0,0,0-5.83.73l-.69.28-.66.34-.33.17-1,.57c-.48.32-1,.64-1.41,1,0-.08,0-.16,0-.24.43-.32.87-.63,1.31-.92l.65-.39.32-.19.34-.18.67-.34c.23-.11.46-.2.7-.29a12.52,12.52,0,0,1,5.94-.76c.61.06,1.21.15,1.81.26l.35.07a34.22,34.22,0,0,1,3.7,1c1.91.61,3.78,1.33,5.65,2a60.23,60.23,0,0,0,9.6,3l.35.07c.5.1,1,.18,1.51.25a21.26,21.26,0,0,0,20.62-9.18c.48-.69.92-1.4,1.33-2.12ZM214.86,200.5l-.27.22-.37.32a22.26,22.26,0,0,0-3.91,4.58c-2.2,3.39-3.48,7.23-5.05,10.89a33.49,33.49,0,0,1-2.75,5.28c-.13.2-.27.4-.41.59l-.19.27a19.78,19.78,0,0,1-3.34,3.56,20.4,20.4,0,0,1-5.08,3.08l-.67.31c-.23.1-.47.16-.7.25-.47.16-.94.33-1.41.47l-1.45.34a6,6,0,0,1-.74.12l-.73.1c-4,.5-8-.29-12-.07a29.93,29.93,0,0,0-3,.28h-.05l-.35.07a.68.68,0,0,0,0,.14.28.28,0,0,0,0,.09l.4-.08a29.79,29.79,0,0,1,3-.27c4-.21,8,.59,12,.1l.75-.1a6,6,0,0,0,.74-.12l1.47-.34c.48-.14,1-.32,1.43-.47.24-.09.48-.15.71-.26l.69-.31a20.15,20.15,0,0,0,8.64-6.83l.2-.27.33-.48a35.11,35.11,0,0,0,2.79-5.33c1.59-3.67,2.87-7.49,5.05-10.82a21,21,0,0,1,4.37-5l.27-.22a21.79,21.79,0,0,1,2.44-1.71l-.18-.27A21.15,21.15,0,0,0,214.86,200.5Zm3.9,1.29c-1.16-.4-2.32-.8-3.5-1.17l-.4-.12a40.61,40.61,0,0,0-7.72-1.7,22.41,22.41,0,0,0-6,.13,19.34,19.34,0,0,0-5.73,1.86,24.35,24.35,0,0,0-5,3.35,22.43,22.43,0,0,0-3.9,4.58,44,44,0,0,0-3.69,7.59c0,.08-.07.16-.1.23-.41,1-.83,2.06-1.26,3.07a33.54,33.54,0,0,1-2.76,5.28,19.79,19.79,0,0,1-3.94,4.43A20.28,20.28,0,0,1,172.4,231l0,.18a.68.68,0,0,0,0,.14l.33-.21a20.57,20.57,0,0,0,2.15-1.55,20.17,20.17,0,0,0,4-4.48,34.7,34.7,0,0,0,2.8-5.33c.45-1,.87-2.09,1.3-3.13a2.29,2.29,0,0,1,.1-.23,43.27,43.27,0,0,1,3.64-7.46,21.28,21.28,0,0,1,20.32-9.82,39.14,39.14,0,0,1,7.48,1.62,2.64,2.64,0,0,1,.4.12c1.24.38,2.46.79,3.68,1.2l1.53.52c-.08-.13-.16-.25-.25-.37ZM197.68,177c-.06.07-.12.13-.17.2-.42.47-.83.95-1.25,1.41a34.87,34.87,0,0,1-4.31,4.11c-.43.33-.87.65-1.33,1l-.28.18a19.64,19.64,0,0,1-3.55,1.78,20.5,20.5,0,0,1-5.79,1.28l-.75.07c-.24,0-.49,0-.74,0-.49,0-1,0-1.49,0l-1.48-.15a4.43,4.43,0,0,1-.73-.11l-.73-.15c-.56-.11-1.12-.26-1.66-.41l-.17-.06A1.31,1.31,0,0,1,173,186a2.68,2.68,0,0,0-.07.27l.1,0,.16.05q.92.28,1.86.48l.74.15a6.17,6.17,0,0,0,.75.12l1.5.15c.5,0,1,0,1.51,0,.25,0,.5,0,.75,0l.75-.08a20.49,20.49,0,0,0,5.88-1.28,19.3,19.3,0,0,0,3.74-1.89l.29-.18c.42-.28.82-.57,1.21-.87a34.24,34.24,0,0,0,4.37-4.14l1.32-1.49.17-.19c.19-.22.38-.45.58-.67l-.26-.21C198.1,176.52,197.89,176.77,197.68,177Zm-4.12,8.11c-.9-.38-1.77-.81-2.63-1.27l-.31-.17a70.68,70.68,0,0,1-7.25-4.76l-.12-.09-.18-.13c-1.21-.87-2.41-1.75-3.65-2.59a1.88,1.88,0,0,0-.23.16c1.22.84,2.42,1.71,3.63,2.58l.17.13.22.16a72.09,72.09,0,0,0,7.13,4.72l.3.17c.91.5,1.84.95,2.8,1.36a23,23,0,0,0,5.79,1.65,19.6,19.6,0,0,0,6-.11,25.78,25.78,0,0,0,2.86-.67l-.23-.27A20.55,20.55,0,0,1,193.56,185.12Zm7.81-6.13a28.2,28.2,0,0,0-3.37-1.83l-.32-.15-.84-.34a12.67,12.67,0,0,0-5.94-.83l-.75.1-.73.15-.37.08-.37.1-.72.21a20.38,20.38,0,0,0-2.8,1.11c-.72.34-1.41.71-2.09,1.11l-.25.15c-1,.58-1.88,1.21-2.79,1.86-1.62,1.18-3.17,2.44-4.71,3.71l-2.07,1.69-.25.21-.14.11a1.42,1.42,0,0,0-.05.22c.12-.09.24-.18.35-.28l.26-.2,2-1.62c1.55-1.25,3.1-2.52,4.72-3.68.92-.66,1.87-1.3,2.84-1.89a2.2,2.2,0,0,0,.26-.15c.65-.38,1.32-.73,2-1.05a21.23,21.23,0,0,1,2.77-1.09l.72-.2.36-.1.37-.08.72-.15.74-.1a12.34,12.34,0,0,1,5.82.84l.76.31.32.14A30.64,30.64,0,0,1,202,179.7l.29.2C202,179.58,201.68,179.27,201.37,179Zm14.21,63.55a22.92,22.92,0,0,0-5.73-1.82,19.61,19.61,0,0,0-6-.08,24,24,0,0,0-5.82,1.55,22.58,22.58,0,0,0-5.18,3.08,51.72,51.72,0,0,0-6.88,7.08l-.17.19c-.41.48-.82,1-1.24,1.41a34.15,34.15,0,0,1-4.31,4.11,15.48,15.48,0,0,1-1.34.95l-.27.18-.3.19.09.31.52-.33.27-.18a15,15,0,0,0,1.22-.87,34.21,34.21,0,0,0,4.37-4.14l1.32-1.49c0-.06.11-.12.16-.19a52.28,52.28,0,0,1,6.78-6.93c6.16-5,15.23-6.32,22.41-2.74a5,5,0,0,1,.52.26l.27-.21C216,242.75,215.8,242.64,215.58,242.54Zm-33.74,17.91c-.9-.38-1.78-.81-2.64-1.27l-.31-.17c-.26-.14-.53-.29-.79-.45,0,.13.07.26.11.39a3.38,3.38,0,0,0,.41.24,2.38,2.38,0,0,0,.31.17,30,30,0,0,0,2.79,1.37,22.52,22.52,0,0,0,5.79,1.64,18.14,18.14,0,0,0,3.21.17l.48-.36A19.88,19.88,0,0,1,181.84,260.45Zm13.5-2.19c-1.62-1.17-3.24-2.35-4.92-3.44a31.26,31.26,0,0,0-4.15-2.33l-.32-.14-.84-.34a12.51,12.51,0,0,0-5.93-.84l-.75.1-.73.16-.37.08-.37.1-.58.16c0,.07,0,.14.05.21l.59-.16.36-.1.36-.08.73-.15.74-.09a12.34,12.34,0,0,1,5.82.83l.75.31.33.14a29.94,29.94,0,0,1,4.17,2.35c1.67,1.09,3.28,2.28,4.9,3.45l.44.32.22-.18Z" style="fill: rgb(255, 255, 255); transform-origin: 198.62px 219.154px;" id="eltx67kanzpfb" class="animable"></path><path d="M174.9,195.68c-22.21,2.61-58.23,1.62-61.26-8.51-3-9.84,11.34-33.42,17.2-40.2,1.74-2,4.39,3.69,10.71,10.59,3,3.27,16.1,8.53,13,10.65-1.74,1.2-9.33,7.65-7.29,9.2,1.15.88,11.91,2.81,26.81,6.13C192,187.53,181.25,194.94,174.9,195.68Z" style="fill: rgb(211, 118, 106); transform-origin: 148.586px 171.736px;" id="el9n3mzeuto07" class="animable"></path><path d="M177.32,182.64c3.88-.45,7.78,3.13,9.41,10.93s-3.75,24.28-8.66,23.91c-6.71-.5-5.7-18.11-4.75-24.65C174.24,186.58,175.62,182.84,177.32,182.64Z" style="fill: rgb(211, 118, 106); transform-origin: 179.83px 200.044px;" id="eldft65tfe18k" class="animable"></path><path d="M193.29,184.07c-2.62,1.36-10.52-1.08-14.65-4.3-.28-.22-1.16-3.46-2.4-7.35-.77-2.36-1.68-5-2.68-7.28l16.06-2.74a40.25,40.25,0,0,0,2.44,9.5,5.26,5.26,0,0,0,.51.91,1,1,0,0,1,.09.15C193.73,174.64,197.41,181.94,193.29,184.07Z" style="fill: rgb(211, 118, 106); transform-origin: 184.378px 173.427px;" id="eloo3ope98yrt" class="animable"></path><path d="M176,171.75c4.83,3.11,11.19,5.45,17.16,2.07-.21-.37-.37-.66-.51-.86a.55.55,0,0,1-.08-.15,4.2,4.2,0,0,1-.51-.91,40,40,0,0,1-2.45-9.5l-16.06,2.74C174.47,167.23,175.3,169.58,176,171.75Z" style="fill: rgb(38, 50, 56); transform-origin: 183.355px 168.94px;" id="el5fh73p7tmkr" class="animable"></path><path d="M163.26,149.79c.66,5.84,9.84,19.53,14.94,21.26,7.4,2.51,16.29-.8,17.61-9,1.27-7.91-11-25.55-16.4-26.79C171.46,133.48,162.28,141.18,163.26,149.79Z" style="fill: rgb(211, 118, 106); transform-origin: 179.545px 153.437px;" id="el91ob07zkmiu" class="animable"></path><path d="M181,151.87s0,.1,0,.13c.68.88,1.32,2,.72,2.89,0,0,0,.07,0,0C182.65,154.07,181.8,152.6,181,151.87Z" style="fill: rgb(38, 50, 56); transform-origin: 181.563px 153.396px;" id="elqfhbzahcdga" class="animable"></path><path d="M179.53,151.52c-1.53.94.47,3.92,1.88,3S180.81,150.73,179.53,151.52Z" style="fill: rgb(38, 50, 56); transform-origin: 180.436px 153.039px;" id="elkslbpxkni7l" class="animable"></path><path d="M186.34,148s.11,0,.13,0c.59.94,1.42,1.92,2.46,1.67,0,0,.06,0,0,0C187.84,150.33,186.75,149,186.34,148Z" style="fill: rgb(38, 50, 56); transform-origin: 187.648px 148.923px;" id="elkgyylhebki8" class="animable"></path><path d="M186.52,146.52c1.41-1.11,3.52,1.79,2.22,2.81S185.34,147.44,186.52,146.52Z" style="fill: rgb(38, 50, 56); transform-origin: 187.66px 147.907px;" id="elpjip14f8zlk" class="animable"></path><path d="M177.56,151.19a14.5,14.5,0,0,0,1.37-.55,2.37,2.37,0,0,0,1.28-.84.77.77,0,0,0-.17-.91,1.87,1.87,0,0,0-1.9-.1,2.79,2.79,0,0,0-1.53,1.27A.81.81,0,0,0,177.56,151.19Z" style="fill: rgb(38, 50, 56); transform-origin: 178.41px 149.899px;" id="elhw9yffpsau" class="animable"></path><path d="M186.78,144.66a13.47,13.47,0,0,1-1.39.49,2.33,2.33,0,0,1-1.51.22.77.77,0,0,1-.48-.79,1.92,1.92,0,0,1,1.36-1.34,2.79,2.79,0,0,1,2-.06A.81.81,0,0,1,186.78,144.66Z" style="fill: rgb(38, 50, 56); transform-origin: 185.324px 144.217px;" id="elkdb6kklh70i" class="animable"></path><path d="M185.89,161a1.66,1.66,0,0,0,1.14,0,3,3,0,0,0,.84-.89,0,0,0,0,1,.07,0,1.49,1.49,0,0,1-.84,1.28,1.17,1.17,0,0,1-1.27-.33C185.78,161.07,185.84,161,185.89,161Z" style="fill: rgb(38, 50, 56); transform-origin: 186.876px 160.784px;" id="elj5on7ne385" class="animable"></path><path d="M185,157.6a3.82,3.82,0,0,0,3,0,4.91,4.91,0,0,0,1.16-.7l.2-.17c.06-.06.12-.1.18-.17a.27.27,0,0,0,0-.33h0a.27.27,0,0,0-.07-.08h0l-.06-.08c-.45-.72-1.25-1.76-1.25-1.76.35,0,2.07-.33,1.8-.69a56.84,56.84,0,0,0-7.58-8.69c-.09-.09-.23,0-.15.13,2,2.92,4.58,5.46,6.67,8.37a6.41,6.41,0,0,0-1.78.54c-.08.09,1.57,2,1.75,2.31a.1.1,0,0,0,0,0,5.27,5.27,0,0,1-3.93,1.17C184.94,157.45,184.91,157.56,185,157.6Z" style="fill: rgb(38, 50, 56); transform-origin: 186.097px 151.4px;" id="elykyps98tcij" class="animable"></path><path d="M188.55,156.81a4.44,4.44,0,0,1-.72,2.15,2,2,0,0,1-1,.75c-.87.3-1.34-.37-1.59-1a5,5,0,0,1-.27-1.11A5.8,5.8,0,0,0,188.55,156.81Z" style="fill: rgb(38, 50, 56); transform-origin: 186.76px 158.297px;" id="el923ai6x0utd" class="animable"></path><path d="M187.83,159a2,2,0,0,1-1,.75c-.87.3-1.34-.37-1.59-1A2.08,2.08,0,0,1,187.83,159Z" style="fill: rgb(255, 153, 186); transform-origin: 186.535px 159.117px;" id="el1o1epjo8f58" class="animable"></path><path d="M184.56,138.18c-2.74,6.38-12.53,5.54-12.53,5.54a6.24,6.24,0,0,1-3.23,6.71s4.22,8.79,2.06,10.13c-3.3,2.06-11.38-8.46-11.73-11.31s2.09-5.17,2.09-5.17a6.36,6.36,0,0,1,.18-4.67c1.15-3.14,10.37-5.73,10.37-5.73a8.52,8.52,0,0,1,.29-3.93,2.4,2.4,0,0,1,3.1-1.58,5.77,5.77,0,0,0,.48,2.52c1.13,2.64,3.09,1.4,1.69-.77a4,4,0,0,0-2.17-1.75c.06-2,1.35-3.49,2.79-3.34C180.56,125.11,186.84,132.89,184.56,138.18Z" style="fill: rgb(38, 50, 56); transform-origin: 172.073px 142.823px;" id="eltiopogrck99" class="animable"></path><path d="M171.7,160.54s-5.52-3.24-7.14-1.06,4.06,7.94,7,7.72a2.84,2.84,0,0,0,2.83-3Z" style="fill: rgb(211, 118, 106); transform-origin: 169.335px 162.966px;" id="elhkuc6ak1qze" class="animable"></path><path d="M166.23,161.09s0,.08,0,.07c2.11-.09,3.8,1.13,5.25,2.54a1.58,1.58,0,0,0-2.32.59.06.06,0,0,0,.09.07,1.76,1.76,0,0,1,2-.24,8.34,8.34,0,0,1,1.48,1c.16.12.41-.1.26-.25l0,0C172,162.57,168.77,160.2,166.23,161.09Z" style="fill: rgb(38, 50, 56); transform-origin: 169.633px 163.026px;" id="el0g9039eab5v8" class="animable"></path><path d="M184.29,138.75a8.5,8.5,0,0,1,1.79,1.59,8,8,0,0,1,1.31,2,9.71,9.71,0,0,1-.88-.81c-.29-.28-.54-.57-.81-.86A12.82,12.82,0,0,1,184.29,138.75Z" style="fill: rgb(38, 50, 56); transform-origin: 185.84px 140.545px;" id="elmbwwa22r6s" class="animable"></path><path d="M171.78,149c0,1.38-2.05,6,.23,6,1.46,0,.49-3,.18-3.94A8.82,8.82,0,0,1,171.78,149Z" style="fill: rgb(235, 235, 235); transform-origin: 171.863px 152px;" id="eldwu6ot4i8jj" class="animable"></path><path d="M173.52,145.66c0,.93-1.2,4,.13,4,.84,0,.28-2,.11-2.65A6.39,6.39,0,0,1,173.52,145.66Z" style="fill: rgb(235, 235, 235); transform-origin: 173.562px 147.66px;" id="el1v2yn7hi7un" class="animable"></path><path d="M430.16,300c0,9.77-6.13,17.71-13.74,17.8H336.74v-35.6h79.68C424,282.32,430.16,290.26,430.16,300Z" style="fill: rgb(55, 71, 79); transform-origin: 383.45px 300px;" id="elxv7bvadm2fq" class="animable"></path><ellipse cx="336.73" cy="300.03" rx="13.88" ry="17.8" style="fill: rgb(38, 50, 56); transform-origin: 336.73px 300.03px;" id="el5hwe8vkxz4b" class="animable"></ellipse><ellipse cx="336.73" cy="300.03" rx="7.27" ry="9.32" style="fill: rgb(199, 199, 199); transform-origin: 336.73px 300.03px;" id="elpp1afdregw" class="animable"></ellipse></g><g id="freepik--Dumbell--inject-127" class="animable" style="transform-origin: 405px 409.99px;"><rect x="368.81" y="393.33" width="14.59" height="33.32" style="fill: rgb(69, 90, 100); transform-origin: 376.105px 409.99px;" id="el4s87bla9w3i" class="animable"></rect><rect x="361.8" y="396.91" width="7.01" height="26.16" style="fill: rgb(69, 90, 100); transform-origin: 365.305px 409.99px;" id="elt39w0jvls6" class="animable"></rect><rect x="365.31" y="396.91" width="3.51" height="26.17" style="fill: rgb(55, 71, 79); transform-origin: 367.065px 409.995px;" id="elhmkzwh1wm6" class="animable"></rect><g id="el0a7u2o1o738"><rect x="426.6" y="393.33" width="14.59" height="33.32" style="fill: rgb(69, 90, 100); transform-origin: 433.895px 409.99px; transform: rotate(180deg);" class="animable"></rect></g><g id="el2xqsuqn7kuc"><rect x="441.19" y="396.91" width="7.01" height="26.16" style="fill: rgb(69, 90, 100); transform-origin: 444.695px 409.99px; transform: rotate(180deg);" class="animable"></rect></g><rect x="441.19" y="396.9" width="3.51" height="26.16" style="fill: rgb(55, 71, 79); transform-origin: 442.945px 409.98px;" id="elykz6e90f95" class="animable"></rect><rect x="383.4" y="403.66" width="43.2" height="12.65" style="fill: rgb(55, 71, 79); transform-origin: 405px 409.985px;" id="el80ty5up9glq" class="animable"></rect></g><g id="freepik--Bottle--inject-127" class="animable" style="transform-origin: 150.14px 390.73px;"><rect x="146.46" y="355.02" width="7.34" height="8.44" style="fill: rgb(219, 219, 219); transform-origin: 150.13px 359.24px;" id="elubjfr89zusl" class="animable"></rect><rect x="144.15" y="360.73" width="11.97" height="9.64" style="fill: rgb(199, 199, 199); transform-origin: 150.135px 365.55px;" id="eltgkwxiwsq2k" class="animable"></rect><path d="M164.37,382.31v44.13H135.91V382.31c0-8.73,5.49-15.47,14.22-15.47S164.37,373.58,164.37,382.31Z" style="fill: rgb(255, 199, 39); transform-origin: 150.14px 396.64px;" id="elxlarujnztg" class="animable"></path><rect x="135.91" y="390.09" width="28.46" height="7.48" style="fill: rgb(69, 90, 100); transform-origin: 150.14px 393.83px;" id="el4pdx7z2hc8y" class="animable"></rect><rect x="135.91" y="401.05" width="28.46" height="3.74" style="fill: rgb(69, 90, 100); transform-origin: 150.14px 402.92px;" id="el2k9vgb3x7vf" class="animable"></rect></g><defs>     <filter id="active" height="200%">         <feMorphology in="SourceAlpha" result="DILATED" operator="dilate" radius="2"></feMorphology>                <feFlood flood-color="#32DFEC" flood-opacity="1" result="PINK"></feFlood>        <feComposite in="PINK" in2="DILATED" operator="in" result="OUTLINE"></feComposite>        <feMerge>            <feMergeNode in="OUTLINE"></feMergeNode>            <feMergeNode in="SourceGraphic"></feMergeNode>        </feMerge>    </filter>    <filter id="hover" height="200%">        <feMorphology in="SourceAlpha" result="DILATED" operator="dilate" radius="2"></feMorphology>                <feFlood flood-color="#ff0000" flood-opacity="0.5" result="PINK"></feFlood>        <feComposite in="PINK" in2="DILATED" operator="in" result="OUTLINE"></feComposite>        <feMerge>            <feMergeNode in="OUTLINE"></feMergeNode>            <feMergeNode in="SourceGraphic"></feMergeNode>        </feMerge>            <feColorMatrix type="matrix" values="0   0   0   0   0                0   1   0   0   0                0   0   0   0   0                0   0   0   1   0 "></feColorMatrix>    </filter></defs></svg>